<?xml version="1.0" encoding="UTF-8" standalone="no"?><!DOCTYPE svg PUBLIC "-//W3C//DTD SVG 1.1//EN" "http://www.w3.org/Graphics/SVG/1.1/DTD/svg11.dtd"><svg width="100%" height="100%" viewBox="0 0 306 306" version="1.1" xmlns="http://www.w3.org/2000/svg" xmlns:xlink="http://www.w3.org/1999/xlink" xml:space="preserve" style="fill-rule:evenodd;clip-rule:evenodd;stroke-linejoin:round;stroke-miterlimit:1.41421;"><circle cx="154.096" cy="150.268" r="141.973" style="fill:#ff3a00;fill-opacity:0.376471;"/><g><path d="M152.502,0.001c-84.09,0 -152.502,68.411 -152.502,152.5c0,84.089 68.412,152.5 152.502,152.5c84.089,0 152.5,-68.411 152.5,-152.5c0,-84.089 -68.411,-152.5 -152.5,-152.5Zm0,280c-70.305,0 -127.502,-57.195 -127.502,-127.5c0,-70.304 57.197,-127.5 127.502,-127.5c70.304,0 127.5,57.196 127.5,127.5c0,70.305 -57.196,127.5 -127.5,127.5Z" style="fill:#ff3a00;fill-rule:nonzero;"/><path d="M170.18,152.5l43.13,-43.129c4.882,-4.882 4.882,-12.796 0,-17.678c-4.881,-4.882 -12.796,-4.881 -17.678,0l-43.13,43.13l-43.131,-43.131c-4.882,-4.881 -12.796,-4.881 -17.678,0c-4.881,4.882 -4.881,12.796 0,17.678l43.13,43.13l-43.131,43.131c-4.881,4.882 -4.881,12.796 0,17.679c2.441,2.44 5.64,3.66 8.839,3.66c3.199,0 6.398,-1.221 8.839,-3.66l43.131,-43.132l43.131,43.132c2.441,2.439 5.64,3.66 8.839,3.66c3.199,0 6.398,-1.221 8.839,-3.66c4.882,-4.883 4.882,-12.797 0,-17.679l-43.13,-43.131Z" style="fill:#ff3a00;fill-rule:nonzero;"/></g></svg>