<?xml version="1.0" encoding="UTF-8" standalone="no"?>
<!DOCTYPE svg PUBLIC "-//W3C//DTD SVG 1.1//EN" "http://www.w3.org/Graphics/SVG/1.1/DTD/svg11.dtd">
<svg width="100%" height="100%" viewBox="0 0 287 287" version="1.1" xmlns="http://www.w3.org/2000/svg" xmlns:xlink="http://www.w3.org/1999/xlink" xml:space="preserve" style="fill-rule:evenodd;clip-rule:evenodd;stroke-linejoin:round;stroke-miterlimit:1.41421;">
    <g transform="matrix(1,0,0,1,7.33472,6.60125)">
        <circle cx="136.059" cy="136.426" r="136.426" style="fill:rgb(0,186,255);fill-opacity:0.235294;"/>
    </g>
    <path d="M143.027,0C64.04,0 0,64.04 0,143.027C0,222.023 64.04,286.054 143.027,286.054C222.014,286.054 286.054,222.023 286.054,143.027C286.054,64.049 222.014,0 143.027,0ZM143.027,259.236C78.844,259.236 26.818,207.21 26.818,143.027C26.818,78.844 78.844,26.827 143.027,26.827C207.21,26.827 259.236,78.844 259.236,143.027C259.236,207.21 207.21,259.236 143.027,259.236ZM194.704,134.088L169.844,134.088L169.844,89.392C169.844,84.458 165.848,80.453 160.905,80.453L125.148,80.453C120.214,80.453 116.209,84.458 116.209,89.392L116.209,134.088L91.341,134.088C81.642,134.088 77.673,140.551 82.518,148.426L134.204,199.522C139.049,207.406 146.987,207.406 151.841,199.522L203.518,148.426C208.381,140.551 204.412,134.088 194.704,134.088Z" style="fill:rgb(0,186,255);fill-rule:nonzero;"/>
</svg>
