<?xml version="1.0" encoding="UTF-8" standalone="no"?><!DOCTYPE svg PUBLIC "-//W3C//DTD SVG 1.1//EN" "http://www.w3.org/Graphics/SVG/1.1/DTD/svg11.dtd"><svg width="100%" height="100%" viewBox="0 0 490 490" version="1.1" xmlns="http://www.w3.org/2000/svg" xmlns:xlink="http://www.w3.org/1999/xlink" xml:space="preserve" style="fill-rule:evenodd;clip-rule:evenodd;stroke-linejoin:round;stroke-miterlimit:1.41421;"><g><path d="M203.549,64.025c-56.304,0 -92.653,37.631 -92.653,95.86c0,48.536 72.982,145.963 81.32,156.868l11.332,14.967l11.403,-14.967c8.268,-10.975 81.25,-108.403 81.25,-156.868c0.001,-58.229 -36.348,-95.86 -92.652,-95.86Zm-0.019,216.49c-32.317,-45.322 -62.009,-98.452 -62.009,-120.63c0,-41.458 22.608,-65.235 62.028,-65.235c39.42,0 62.028,23.777 62.028,65.235c0,20.159 -25.443,69.134 -62.047,120.63Z" style="fill:#fdcd0b;fill-rule:nonzero;"/><circle cx="203.478" cy="160.526" r="30.005" style="fill:#fdcd0b;"/><path d="M370.199,357.701l-24.53,-24.527c33.924,-35.378 54.811,-83.357 54.811,-136.242c0,-108.763 -88.169,-196.932 -196.931,-196.932c-108.762,0 -196.932,88.169 -196.932,196.932c0,108.762 88.169,196.931 196.932,196.931c44.838,0 86.154,-15.012 119.257,-40.247l25.742,25.738l-22.85,22.853l87.792,87.793l69.893,-69.901l-87.793,-87.793l-25.391,25.395Zm-332.957,-160.769c0,-91.702 74.605,-166.307 166.307,-166.307c91.702,0 166.307,74.605 166.307,166.307c0,91.702 -74.605,166.306 -166.307,166.306c-91.702,0 -166.307,-74.605 -166.307,-166.306Zm376.248,249.762l-44.487,-44.487l26.588,-26.595l44.487,44.487l-26.588,26.595Z" style="fill:#fdcd0b;fill-rule:nonzero;"/></g></svg>