<?xml version="1.0" encoding="UTF-8" standalone="no"?><!DOCTYPE svg PUBLIC "-//W3C//DTD SVG 1.1//EN" "http://www.w3.org/Graphics/SVG/1.1/DTD/svg11.dtd"><svg width="100%" height="100%" viewBox="0 0 438 438" version="1.1" xmlns="http://www.w3.org/2000/svg" xmlns:xlink="http://www.w3.org/1999/xlink" xml:space="preserve" style="fill-rule:evenodd;clip-rule:evenodd;stroke-linejoin:round;stroke-miterlimit:1.41421;"><g><ellipse cx="216.054" cy="218.8" rx="209.645" ry="211.476" style="fill:#82a800;fill-opacity:0.376471;"/><path d="M194,142.8c0.8,1.6 1.6,3.2 2.4,4.4c0.8,1.2 2,2.4 2.8,3.6c1.2,1.2 2.4,2.4 4,3.6c1.2,0.8 2.8,2 4.8,2.4c1.6,0.8 3.2,1.2 5.2,1.6c2,0.4 3.6,0.4 5.2,0.4c1.6,0 3.6,0 5.2,-0.4c1.6,-0.4 3.2,-0.8 4.4,-1.6l0.4,0c1.6,-0.8 3.2,-1.6 4.8,-2.8c1.2,-0.8 2.4,-2 3.6,-3.2l0.4,-0.4c1.2,-1.2 2,-2.4 2.8,-3.6c0.8,-1.2 1.6,-2.4 2,-4c0,-0.4 0,-0.4 0.4,-0.8c0.8,-1.6 1.2,-3.6 1.6,-5.2c0.4,-1.6 0.4,-3.6 0.4,-5.2c0,-1.6 0,-3.6 -0.4,-5.2c-0.4,-1.6 -0.8,-3.2 -1.6,-5.2c-1.2,-2.8 -2.8,-5.2 -4.8,-7.2c-0.4,-0.4 -0.4,-0.4 -0.8,-0.8c-1.2,-1.2 -2.4,-2 -4,-3.2c-1.6,-0.8 -2.8,-1.6 -4.4,-2.4c-1.6,-0.8 -3.2,-1.2 -4.8,-1.6c-2,-0.4 -3.6,-0.4 -5.2,-0.4c-1.6,0 -3.6,0 -5.2,0.4c-1.6,0.4 -3.2,0.8 -4.8,1.6l-0.4,0c-1.6,0.8 -3.2,1.6 -4.4,2.4c-1.6,1.2 -2.8,2 -4,3.2c-1.2,1.2 -2.4,2.4 -3.2,3.6c-0.8,1.2 -1.6,2.8 -2.4,4.4c-0.8,1.6 -1.2,3.2 -1.6,4.8c-0.4,2 -0.4,3.6 -0.4,5.2c0,1.6 0,3.6 0.4,5.2c0.4,3.2 1.2,4.8 1.6,6.4Z" style="fill:#82a800;fill-rule:nonzero;"/><path d="M249.6,289.2l-9.2,0l0,-98c0,-5.6 -4.4,-10.4 -10.4,-10.4l-42,0c-5.6,0 -10.4,4.4 -10.4,10.4l0,21.6c0,5.6 4.4,10.4 10.4,10.4l8.4,0l0,66.4l-8.4,0c-5.6,0 -10.4,4.4 -10.4,10.4l0,21.6c0,5.6 4.4,10.4 10.4,10.4l61.6,0c5.6,0 10.4,-4.4 10.4,-10.4l0,-21.6c0,-6 -4.8,-10.8 -10.4,-10.8Z" style="fill:#82a800;fill-rule:nonzero;"/><path d="M218.8,0c-120.8,0 -218.8,98 -218.8,218.8c0,120.8 98,218.8 218.8,218.8c120.8,0 218.8,-98 218.8,-218.8c0,-120.8 -98,-218.8 -218.8,-218.8Zm0,408.8c-104.8,0 -190,-85.2 -190,-190c0,-104.8 85.2,-190 190,-190c104.8,0 190,85.2 190,190c0,104.8 -85.2,190 -190,190Z" style="fill:#82a800;fill-rule:nonzero;"/></g></svg>