<?xml version="1.0" encoding="UTF-8" standalone="no"?>
<!DOCTYPE svg PUBLIC "-//W3C//DTD SVG 1.1//EN" "http://www.w3.org/Graphics/SVG/1.1/DTD/svg11.dtd">
<svg width="100%" height="100%" viewBox="0 0 500 500" version="1.1" xmlns="http://www.w3.org/2000/svg" xmlns:xlink="http://www.w3.org/1999/xlink" xml:space="preserve" style="fill-rule:evenodd;clip-rule:evenodd;stroke-linecap:round;stroke-linejoin:round;stroke-miterlimit:1.5;">
    <g transform="matrix(0.49626,0.49626,-0.49626,0.49626,249.743,1.31001)">
        <path d="M500,50C500,22.404 477.596,0 450,0L50,0C22.404,0 0,22.404 0,50L0,450C0,477.596 22.404,500 50,500L450,500C477.596,500 500,477.596 500,450L500,50Z" style="fill:rgb(250,204,20);"/>
    </g>
    <g transform="matrix(1,0,0,1,5.97728,0.74716)">
        <g transform="matrix(0.662049,0,0,0.659718,49.6263,74.5378)">
            <ellipse cx="292.5" cy="266" rx="141.5" ry="142" style="fill:rgb(42,178,249);fill-opacity:0;stroke:rgb(59,58,58);stroke-width:30.26px;"/>
        </g>
        <g transform="matrix(1,0,0,1.4241,-7,-50.1103)">
            <path d="M250,143.534L250,100" style="fill:rgb(39,129,249);stroke:rgb(59,58,58);stroke-width:16.25px;"/>
        </g>
        <g transform="matrix(6.12323e-17,1,-1.69224,1.0362e-16,576.924,-0.640185)">
            <path d="M250,135.11L250,100" style="fill:rgb(39,129,249);stroke:rgb(59,58,58);stroke-width:14.39px;"/>
        </g>
        <g transform="matrix(-1,-1.22465e-16,1.74402e-16,-1.4241,493,553.09)">
            <path d="M250,145.64L250,100" style="fill:rgb(39,129,249);stroke:rgb(59,58,58);stroke-width:16.25px;"/>
        </g>
        <g transform="matrix(6.12323e-17,-1,1.72203,1.05444e-16,-85.3727,498.469)">
            <path d="M250,135.11L250,100" style="fill:rgb(39,129,249);stroke:rgb(59,58,58);stroke-width:14.2px;"/>
        </g>
    </g>
    <g transform="matrix(4,0,0,4,-730.115,-767.954)">
        <circle cx="245" cy="254.36" r="5" style="fill:rgb(59,58,58);"/>
    </g>
</svg>
