<?xml version="1.0" encoding="UTF-8" standalone="no"?><!DOCTYPE svg PUBLIC "-//W3C//DTD SVG 1.1//EN" "http://www.w3.org/Graphics/SVG/1.1/DTD/svg11.dtd"><svg width="100%" height="100%" viewBox="0 0 447 447" version="1.1" xmlns="http://www.w3.org/2000/svg" xmlns:xlink="http://www.w3.org/1999/xlink" xml:space="preserve" style="fill-rule:evenodd;clip-rule:evenodd;stroke-linejoin:round;stroke-miterlimit:1.41421;"><path id="search" d="M318.75,280.5l-20.4,0l-7.649,-7.65c25.5,-28.05 40.8,-66.3 40.8,-107.1c-0.001,-91.8 -73.951,-165.75 -165.751,-165.75c-91.8,0 -165.75,73.95 -165.75,165.75c0,91.8 73.95,165.75 165.75,165.75c40.8,0 79.05,-15.3 107.1,-40.8l7.65,7.649l0,20.4l127.5,127.501l38.25,-38.25l-127.5,-127.5Zm-153,0c-63.75,0 -114.75,-51 -114.75,-114.75c0,-63.75 51,-114.75 114.75,-114.75c63.75,0 114.75,51 114.75,114.75c0,63.75 -51,114.75 -114.75,114.75Z" style="fill:#838383;fill-rule:nonzero;"/></svg>